<?xml version="1.0" encoding="UTF-8"?>
<svg xmlns="http://www.w3.org/2000/svg" width="2034" height="756" viewBox="0 0 2034 756"><rect width="2034" height="756" fill="#0d0d14"/><path d="M 131 556 L 131 598" fill="none" stroke="#8b8bff" stroke-width="1.5" opacity="0.5"/><path d="M 131 598 L 131 638 M 131 638 L 131 640" fill="none" stroke="#8b8bff" stroke-width="1.5" opacity="0.5"/><path d="M 426 556 L 426 598" fill="none" stroke="#8b8bff" stroke-width="1.5" opacity="0.5"/><path d="M 351 598 L 501 598" fill="none" stroke="#8b8bff" stroke-width="1.5" opacity="0.5"/><path d="M 351 598 L 351 638 M 351 638 L 351 640" fill="none" stroke="#8b8bff" stroke-width="1.5" opacity="0.5"/><path d="M 501 598 L 501 638 M 501 638 L 501 640" fill="none" stroke="#8b8bff" stroke-width="1.5" opacity="0.5"/><path d="M 356 396 L 356 438" fill="none" stroke="#8b8bff" stroke-width="1.5" opacity="0.5"/><path d="M 131 438 L 651 438" fill="none" stroke="#8b8bff" stroke-width="1.5" opacity="0.5"/><path d="M 131 438 L 131 478 M 131 478 L 131 480" fill="none" stroke="#8b8bff" stroke-width="1.5" opacity="0.5"/><path d="M 426 438 L 426 478 M 426 478 L 426 480" fill="none" stroke="#8b8bff" stroke-width="1.5" opacity="0.5"/><path d="M 651 438 L 651 478 M 651 478 L 651 480" fill="none" stroke="#8b8bff" stroke-width="1.5" opacity="0.5"/><path d="M 876 396 L 876 438" fill="none" stroke="#8b8bff" stroke-width="1.5" opacity="0.5"/><path d="M 801 438 L 951 438" fill="none" stroke="#8b8bff" stroke-width="1.5" opacity="0.5"/><path d="M 801 438 L 801 478 M 801 478 L 801 480" fill="none" stroke="#8b8bff" stroke-width="1.5" opacity="0.5"/><path d="M 951 438 L 951 478 M 951 478 L 951 480" fill="none" stroke="#8b8bff" stroke-width="1.5" opacity="0.5"/><path d="M 1171 396 L 1171 438" fill="none" stroke="#8b8bff" stroke-width="1.5" opacity="0.5"/><path d="M 1171 438 L 1171 478 M 1171 478 L 1171 480" fill="none" stroke="#8b8bff" stroke-width="1.5" opacity="0.5"/><path d="M 651 236 L 651 278" fill="none" stroke="#8b8bff" stroke-width="1.5" opacity="0.5"/><path d="M 356 278 L 1171 278" fill="none" stroke="#8b8bff" stroke-width="1.5" opacity="0.5"/><path d="M 356 278 L 356 318 M 356 318 L 356 320" fill="none" stroke="#8b8bff" stroke-width="1.5" opacity="0.5"/><path d="M 876 278 L 876 318 M 876 318 L 876 320" fill="none" stroke="#8b8bff" stroke-width="1.5" opacity="0.5"/><path d="M 1171 278 L 1171 318 M 1171 318 L 1171 320" fill="none" stroke="#8b8bff" stroke-width="1.5" opacity="0.5"/><path d="M 651 76 L 651 118" fill="none" stroke="#8b8bff" stroke-width="1.5" opacity="0.5"/><path d="M 651 118 L 651 158 M 651 158 L 651 160" fill="none" stroke="#8b8bff" stroke-width="1.5" opacity="0.5"/><path d="M 1863 76 L 1863 118" fill="none" stroke="#8b8bff" stroke-width="1.5" opacity="0.5"/><path d="M 1863 118 L 1863 158 M 1863 158 L 1863 160" fill="none" stroke="#8b8bff" stroke-width="1.5" opacity="0.5"/><g transform="translate(520,0)"><rect width="122" height="76" rx="12" fill="#1a1f2e" stroke="#2a2a36"/><text x="10" y="30" fill="#ece6d6" font-family="sans-serif" font-size="13" font-weight="700">Dhirubhai Mehta</text><text x="10" y="50" fill="#847d6c" font-family="sans-serif" font-size="11">1918 – 1992</text></g><g transform="translate(660,0)"><rect width="122" height="76" rx="12" fill="#28181d" stroke="#2a2a36"/><text x="10" y="30" fill="#ece6d6" font-family="sans-serif" font-size="13" font-weight="700">Kashiben Mehta</text><text x="10" y="50" fill="#847d6c" font-family="sans-serif" font-size="11">1924 – 2001</text></g><g transform="translate(520,160)"><rect width="122" height="76" rx="12" fill="#1a1f2e" stroke="#2a2a36"/><text x="10" y="30" fill="#ece6d6" font-family="sans-serif" font-size="13" font-weight="700">Harilal Mehta</text><text x="10" y="50" fill="#847d6c" font-family="sans-serif" font-size="11">1946 – 2015</text></g><g transform="translate(660,160)"><rect width="122" height="76" rx="12" fill="#28181d" stroke="#2a2a36"/><text x="10" y="30" fill="#ece6d6" font-family="sans-serif" font-size="13" font-weight="700">Savitaben Mehta</text><text x="10" y="50" fill="#847d6c" font-family="sans-serif" font-size="11">b. 1951</text></g><g transform="translate(225,320)"><rect width="122" height="76" rx="12" fill="#1a1f2e" stroke="#2a2a36"/><text x="10" y="30" fill="#ece6d6" font-family="sans-serif" font-size="13" font-weight="700">Suresh Mehta</text><text x="10" y="50" fill="#847d6c" font-family="sans-serif" font-size="11">b. 1968</text></g><g transform="translate(365,320)"><rect width="122" height="76" rx="12" fill="#28181d" stroke="#2a2a36"/><text x="10" y="30" fill="#ece6d6" font-family="sans-serif" font-size="13" font-weight="700">Meena Mehta</text><text x="10" y="50" fill="#847d6c" font-family="sans-serif" font-size="11">b. 1972</text></g><g transform="translate(0,480)"><rect width="122" height="76" rx="12" fill="#28181d" stroke="#2a2a36"/><text x="10" y="30" fill="#ece6d6" font-family="sans-serif" font-size="13" font-weight="700">Anjali Desai</text><text x="10" y="50" fill="#847d6c" font-family="sans-serif" font-size="11">b. 1993</text></g><g transform="translate(140,480)"><rect width="122" height="76" rx="12" fill="#1a1f2e" stroke="#2a2a36"/><text x="10" y="30" fill="#ece6d6" font-family="sans-serif" font-size="13" font-weight="700">Sameer Desai</text><text x="10" y="50" fill="#847d6c" font-family="sans-serif" font-size="11">b. 1990</text></g><g transform="translate(70,640)"><rect width="122" height="76" rx="12" fill="#1a1f2e" stroke="#2a2a36"/><text x="10" y="30" fill="#ece6d6" font-family="sans-serif" font-size="13" font-weight="700">Ishaan Desai</text><text x="10" y="50" fill="#847d6c" font-family="sans-serif" font-size="11">b. 2019</text></g><g transform="translate(295,480)"><rect width="122" height="76" rx="12" fill="#1a1f2e" stroke="#2a2a36"/><text x="10" y="30" fill="#ece6d6" font-family="sans-serif" font-size="13" font-weight="700">Jatin</text><text x="10" y="50" fill="#847d6c" font-family="sans-serif" font-size="11">b. 1995</text></g><g transform="translate(435,480)"><rect width="122" height="76" rx="12" fill="#28181d" stroke="#2a2a36"/><text x="10" y="30" fill="#ece6d6" font-family="sans-serif" font-size="13" font-weight="700">Neha Mehta</text><text x="10" y="50" fill="#847d6c" font-family="sans-serif" font-size="11">b. 1996</text></g><g transform="translate(290,640)"><rect width="122" height="76" rx="12" fill="#1a1f2e" stroke="#2a2a36"/><text x="10" y="30" fill="#ece6d6" font-family="sans-serif" font-size="13" font-weight="700">Aarav Mehta</text><text x="10" y="50" fill="#847d6c" font-family="sans-serif" font-size="11">b. 2020</text></g><g transform="translate(440,640)"><rect width="122" height="76" rx="12" fill="#28181d" stroke="#2a2a36"/><text x="10" y="30" fill="#ece6d6" font-family="sans-serif" font-size="13" font-weight="700">Diya Mehta</text><text x="10" y="50" fill="#847d6c" font-family="sans-serif" font-size="11">b. 2023</text></g><g transform="translate(590,480)"><rect width="122" height="76" rx="12" fill="#1a1f2e" stroke="#2a2a36"/><text x="10" y="30" fill="#ece6d6" font-family="sans-serif" font-size="13" font-weight="700">Vikram Mehta</text><text x="10" y="50" fill="#847d6c" font-family="sans-serif" font-size="11">b. 1999</text></g><g transform="translate(745,320)"><rect width="122" height="76" rx="12" fill="#1a1f2e" stroke="#2a2a36"/><text x="10" y="30" fill="#ece6d6" font-family="sans-serif" font-size="13" font-weight="700">Mahesh Mehta</text><text x="10" y="50" fill="#847d6c" font-family="sans-serif" font-size="11">b. 1971</text></g><g transform="translate(885,320)"><rect width="122" height="76" rx="12" fill="#28181d" stroke="#2a2a36"/><text x="10" y="30" fill="#ece6d6" font-family="sans-serif" font-size="13" font-weight="700">Rekha Mehta</text><text x="10" y="50" fill="#847d6c" font-family="sans-serif" font-size="11">b. 1974</text></g><g transform="translate(740,480)"><rect width="122" height="76" rx="12" fill="#28181d" stroke="#2a2a36"/><text x="10" y="30" fill="#ece6d6" font-family="sans-serif" font-size="13" font-weight="700">Priya Mehta</text><text x="10" y="50" fill="#847d6c" font-family="sans-serif" font-size="11">b. 1997</text></g><g transform="translate(890,480)"><rect width="122" height="76" rx="12" fill="#1a1f2e" stroke="#2a2a36"/><text x="10" y="30" fill="#ece6d6" font-family="sans-serif" font-size="13" font-weight="700">Rohan Mehta</text><text x="10" y="50" fill="#847d6c" font-family="sans-serif" font-size="11">b. 2000</text></g><g transform="translate(1040,320)"><rect width="122" height="76" rx="12" fill="#28181d" stroke="#2a2a36"/><text x="10" y="30" fill="#ece6d6" font-family="sans-serif" font-size="13" font-weight="700">Lata Sharma</text><text x="10" y="50" fill="#847d6c" font-family="sans-serif" font-size="11">b. 1975</text></g><g transform="translate(1180,320)"><rect width="122" height="76" rx="12" fill="#1a1f2e" stroke="#2a2a36"/><text x="10" y="30" fill="#ece6d6" font-family="sans-serif" font-size="13" font-weight="700">Vinod Sharma</text><text x="10" y="50" fill="#847d6c" font-family="sans-serif" font-size="11">b. 1972</text></g><g transform="translate(1110,480)"><rect width="122" height="76" rx="12" fill="#1a1f2e" stroke="#2a2a36"/><text x="10" y="30" fill="#ece6d6" font-family="sans-serif" font-size="13" font-weight="700">Karan Sharma</text><text x="10" y="50" fill="#847d6c" font-family="sans-serif" font-size="11">b. 2002</text></g><g transform="translate(1386,0)"><rect width="122" height="76" rx="12" fill="#1a1f2e" stroke="#2a2a36"/><text x="10" y="30" fill="#ece6d6" font-family="sans-serif" font-size="13" font-weight="700">manav mehta</text><text x="10" y="50" fill="#847d6c" font-family="sans-serif" font-size="11">b. 2017</text></g><g transform="translate(1732,0)"><rect width="122" height="76" rx="12" fill="#1a1f2e" stroke="#2a2a36"/><text x="10" y="30" fill="#ece6d6" font-family="sans-serif" font-size="13" font-weight="700">Ramesh Patel</text><text x="10" y="50" fill="#847d6c" font-family="sans-serif" font-size="11">1948 – 2020</text></g><g transform="translate(1872,0)"><rect width="122" height="76" rx="12" fill="#28181d" stroke="#2a2a36"/><text x="10" y="30" fill="#ece6d6" font-family="sans-serif" font-size="13" font-weight="700">Kokilaben Patel</text><text x="10" y="50" fill="#847d6c" font-family="sans-serif" font-size="11">b. 1953</text></g><g transform="translate(1802,160)"><rect width="122" height="76" rx="12" fill="#1a1f2e" stroke="#2a2a36"/><text x="10" y="30" fill="#ece6d6" font-family="sans-serif" font-size="13" font-weight="700">Kiran Patel</text><text x="10" y="50" fill="#847d6c" font-family="sans-serif" font-size="11">b. 1976</text></g></svg>